<svg width="71" height="72" viewBox="0 0 71 72" fill="none" xmlns="http://www.w3.org/2000/svg">
<g clip-path="url(#clip0_48_429)">
<path d="M4.2 20C14.2 0.100014 39.63 -6.18999 57.09 6.78001C59.71 8.78001 60.26 10.15 57.44 12.19C56.656 12.8074 55.9448 13.5119 55.32 14.29C52.32 17.82 50.12 19.84 44.58 16.55C34.18 10.37 22.24 16.16 16 28.94L4.2 20Z" fill="#E94839"/>
<path d="M15.96 42.91C22.88 57.21 34.07 61.05 48.61 54.11C52.3033 57.1166 55.97 60.1166 59.61 63.11C41.36 78.5 14.61 73.11 3.96999 51.78L15.96 42.91Z" fill="#39A956"/>
<path d="M59.66 63.16C55.98 60.14 52.3133 57.14 48.66 54.16C50.46 52.23 52.47 50.51 53.75 48.1C55.38 45.03 55.53 43.21 51.13 43.48C47.33 43.71 43.5 43.38 39.7 43.58C36.82 43.73 36.11 42.58 36.06 39.85C35.8 29.27 35.7 29.27 46.2 29.27C53 29.27 59.8 29.37 66.59 29.27C69.12 29.27 70.11 30.1 70.32 32.59C71.36 44.36 68.72 54.86 59.66 63.16Z" fill="#5680C0"/>
<path d="M15.96 42.91L4.02 51.83C-1.31 41.2 -1.39999 30.59 4.15001 20L15.95 28.94C14.7435 33.519 14.7469 38.3328 15.96 42.91Z" fill="#FABD15"/>
</g>
<defs>
<clipPath id="clip0_48_429">
<rect width="70.55" height="71.96" fill="white"/>
</clipPath>
</defs>
</svg>
